<svg aria-hidden="true" style="position: absolute; width: 0; height: 0; overflow: hidden;" version="1.1"
	xmlns="http://www.w3.org/2000/svg" xmlns:xlink="http://www.w3.org/1999/xlink">
	<defs>
		<symbol id="adults" viewBox="0 0 32 32">
			<path
				d="M9.072 24.128h-4.4c-0.272 0-0.4-0.128-0.544-0.256-0.128-0.144-0.256-0.4-0.128-0.672 0.724-2.11 2.691-3.6 5.006-3.6 0.023 0 0.047 0 0.070 0l-0.004-0c2.8 0 5.056-2.4 5.056-5.2s-2.256-5.472-5.056-5.472c-2.819 0.079-5.074 2.383-5.074 5.214 0 0.046 0.001 0.091 0.002 0.137l-0-0.007c0 1.328 0.528 2.656 1.328 3.6-1.764 0.967-3.117 2.496-3.836 4.343l-0.020 0.057c-0.081 0.288-0.127 0.618-0.127 0.96 0 0.784 0.245 1.511 0.663 2.108l-0.008-0.012c0.672 0.944 1.6 1.472 2.672 1.472h4.4c0.8 0 1.328-0.528 1.328-1.328s-0.528-1.344-1.328-1.344zM6.672 14.272c0-1.472 1.056-2.544 2.4-2.544 1.328 0 2.4 1.2 2.4 2.544 0 1.456-1.072 2.528-2.4 2.528-1.344 0-2.4-1.2-2.4-2.528z">
			</path>
			<path
				d="M30.528 21.472c-0.911-2.409-2.654-4.328-4.871-5.446l-0.057-0.026c1.156-1.083 1.876-2.619 1.876-4.323 0-0.072-0.001-0.144-0.004-0.215l0 0.010c0-3.472-2.672-6.272-5.872-6.272s-5.872 2.8-5.872 6.272c0 1.728 0.672 3.328 1.872 4.528-2.274 1.144-4.017 3.063-4.905 5.403l-0.023 0.069c-0.672 1.2-0.4 2.528 0.256 3.6 0.672 1.056 1.872 1.6 3.072 1.6h11.072c1.2 0 2.4-0.672 3.056-1.6 0.8-1.072 0.944-2.4 0.4-3.6zM18.272 11.6c0-2 1.456-3.6 3.2-3.6 1.728 0 3.2 1.6 3.2 3.6s-1.472 3.6-3.2 3.6c-1.744 0-3.2-1.728-3.2-3.6zM27.872 23.6c-0.144 0.128-0.4 0.528-0.8 0.528h-11.072c-0.528 0-0.8-0.4-0.8-0.528-0.151-0.191-0.243-0.436-0.243-0.702 0-0.181 0.042-0.353 0.118-0.505l-0.003 0.007c1.016-2.696 3.541-4.594 6.519-4.672l0.009-0c2.987 0.078 5.512 1.976 6.512 4.623l0.016 0.049c0.023 0.098 0.037 0.209 0.037 0.325 0 0.33-0.11 0.635-0.295 0.879l0.003-0.004z">
			</path>
		</symbol>
		<symbol id="air-conditioner" viewBox="0 0 32 32">
			<path
				d="M3.424-0.064c-1.919 0.018-3.47 1.569-3.488 3.486v11.458c0.027 1.912 1.574 3.454 3.486 3.472h25.154c1.914-0.018 3.461-1.56 3.488-3.469l0-0.003v-11.456c-0.018-1.919-1.569-3.47-3.486-3.488h-0.002zM3.424 2.336h25.152c0.608 0 1.088 0.48 1.088 1.088v11.456c0 0.624-0.48 1.088-1.088 1.088h-25.152c-0.005 0-0.010 0-0.016 0-0.592 0-1.072-0.48-1.072-1.072 0-0.006 0-0.011 0-0.017v0.001-11.456c0-0.608 0.48-1.088 1.088-1.088z">
			</path>
			<path
				d="M9.088 9.088c-1.872 0.032-3.408 1.6-3.408 3.488v4.56c0 0.663 0.537 1.2 1.2 1.2v0c0.663 0 1.2-0.537 1.2-1.2v0-4.56c0-0.608 0.464-1.072 1.056-1.088h13.728c0.608 0 1.072 0.48 1.072 1.088v4.56c0 0.663 0.537 1.2 1.2 1.2v0c0.663 0 1.2-0.537 1.2-1.2v0-4.56c-0.018-1.914-1.56-3.461-3.469-3.488l-0.003-0h-13.76zM9.152 21.664c-0.663 0-1.2 0.537-1.2 1.2v0 2.512c0 1.12-0.88 2-2 2h-0.224c-0.663 0-1.2 0.537-1.2 1.2v0c0 0.663 0.537 1.2 1.2 1.2v0h0.224c2.426-0.009 4.391-1.974 4.4-4.399v-2.513c0-0.663-0.537-1.2-1.2-1.2v0zM16.016 21.664c-0.663 0-1.2 0.537-1.2 1.2v0 8c0 0.663 0.537 1.2 1.2 1.2v0c0.663 0 1.2-0.537 1.2-1.2v0-8c0-0.663-0.537-1.2-1.2-1.2v0zM22.896 21.664c-0.005-0-0.010-0-0.016-0-0.663 0-1.2 0.537-1.2 1.2 0 0 0 0 0 0v0 2.512c0.009 2.426 1.974 4.391 4.399 4.4h0.225c0.663 0 1.2-0.537 1.2-1.2v0c0-0.663-0.537-1.2-1.2-1.2v0h-0.224c-1.12 0-2-0.88-2-2v-2.512c0-0.663-0.537-1.2-1.2-1.2v0z">
			</path>
		</symbol>
		<symbol id="bed" viewBox="0 0 32 32">
			<path
				d="M8.48 4.896c-1.983 0.027-3.582 1.632-3.6 3.614v5.858c-1.77 0.823-2.978 2.581-2.992 4.622v7.010c0 0.619 0.501 1.12 1.12 1.12v0c0.619 0 1.12-0.501 1.12-1.12v0-7.008c0-1.6 1.28-2.88 2.88-2.88h16.96c0.011 0.011 0.021 0.021 0.032 0.032l0 0h1.088c1.552 0.048 2.8 1.28 2.8 2.848v7.008c0 0.619 0.501 1.12 1.12 1.12v0c0.619 0 1.12-0.501 1.12-1.12v0-7.008c-0.010-2.053-1.226-3.819-2.976-4.627l-0.032-0.013v-5.84c-0.018-1.984-1.617-3.589-3.597-3.616l-0.003-0c-0.002-0-0.005-0-0.008-0s-0.006 0-0.008 0h-15.024zM8.496 7.136h15.008c0.768 0 1.376 0.608 1.376 1.376v5.36h-17.76v-5.36c0-0.768 0.608-1.376 1.376-1.376z">
			</path>
			<path
				d="M9.008 10.88c-1.712 0-3.12 1.408-3.12 3.12v0.992c0 0.619 0.501 1.12 1.12 1.12v0c0.619 0 1.12-0.501 1.12-1.12v0-0.992c0-0.496 0.384-0.88 0.88-0.88h4.992c0.496 0 0.88 0.384 0.88 0.88v1.008c0 0.619 0.501 1.12 1.12 1.12v0c0.619 0 1.12-0.501 1.12-1.12v0-1.008c0-0.496 0.384-0.88 0.88-0.88h5.008c0.48 0 0.864 0.384 0.864 0.88v1.008c0 0.619 0.501 1.12 1.12 1.12v0c0.619 0 1.12-0.501 1.12-1.12v0-1.008c0-1.696-1.392-3.104-3.104-3.12h-5.008c-0.784 0-1.44 0.352-2 0.832-0.514-0.489-1.202-0.8-1.962-0.832l-0.006-0c-0.002-0-0.005-0-0.008-0s-0.006 0-0.008 0h0zM4.48 22.88c-1.424 0.032-2.576 1.2-2.576 2.624v0.496c0 0.619 0.501 1.12 1.12 1.12v0c0.619 0 1.12-0.501 1.12-1.12v0-0.496c0-0.224 0.16-0.384 0.368-0.384h23.008c0.224 0 0.384 0.16 0.384 0.384v0.496c0 0.619 0.501 1.12 1.12 1.12v0c0.619 0 1.12-0.501 1.12-1.12v0-0.496c0-1.44-1.168-2.608-2.592-2.624-0.002-0-0.005-0-0.008-0s-0.006 0-0.008 0h-23.056c-0.002-0-0.005-0-0.008-0s-0.006 0-0.008 0h0z">
			</path>
		</symbol>
		<symbol id="calendar" viewBox="0 0 32 32">
			<path
				d="M10.672 1.472c-0.663 0-1.2 0.537-1.2 1.2v0 1.456h-2.8c-2.135 0.009-3.863 1.737-3.872 3.871v18.673c0 2.128 1.76 3.856 3.872 3.856h18.656c2.129-0.009 3.854-1.728 3.872-3.854v-18.674c0-2.128-1.76-3.872-3.872-3.872h-2.8v-1.456c0-0.663-0.537-1.2-1.2-1.2v0c-0.663 0-1.2 0.537-1.2 1.2v0 1.456h-8.256v-1.456c0-0.663-0.537-1.2-1.2-1.2v0zM6.672 6.528h2.8v1.472c0 0.663 0.537 1.2 1.2 1.2v0c0.663 0 1.2-0.537 1.2-1.2v0-1.472h8.256v1.472c0 0.663 0.537 1.2 1.2 1.2v0c0.663 0 1.2-0.537 1.2-1.2v0-1.472h2.8c0.816 0 1.472 0.64 1.472 1.472v4.128h-21.6v-4.128c0-0.816 0.64-1.472 1.472-1.472zM5.2 14.528h21.6v12.144c0 0.005 0 0.011 0 0.016 0 0.795-0.645 1.44-1.44 1.44-0.011 0-0.023-0-0.034-0l0.002 0h-18.656c-0.010 0-0.021 0-0.032 0-0.795 0-1.44-0.645-1.44-1.44 0-0.006 0-0.012 0-0.017v0.001z">
			</path>
		</symbol>
		<symbol id="camper_alcove" viewBox="0 0 32 32">
			<path
				d="M1.824 6.056h8.688c0.004 0 0.008 0 0.013 0 0.071 0 0.135-0.031 0.179-0.080l0-0 0.84-0.8c0.24-0.24 0.56-0.368 0.904-0.368h13.176c0.608 0 1.176 0.296 1.52 0.8l1.576 2.304c0.224 0.328 0.24 0.752 0.056 1.096-0.192 0.344-0.56 0.56-0.96 0.56h-6.792v0.672h3.48c0.92 0 1.744 0.536 2.112 1.36l2.032 4.656 1.784 0.696c0.918 0.354 1.559 1.225 1.568 2.247v4.321c0 0.64-0.536 1.16-1.2 1.16h-2.072c-0.271 1.443-1.52 2.52-3.022 2.52-0.006 0-0.013-0-0.019-0h0.001c-0.008 0-0.017 0-0.026 0-1.502 0-2.751-1.077-3.019-2.501l-0.003-0.019h-11.344c-0.271 1.443-1.521 2.52-3.022 2.52-0.006 0-0.013-0-0.019-0h0.001c-0.008 0-0.017 0-0.026 0-1.502 0-2.751-1.077-3.019-2.501l-0.003-0.019h-4.144c-0.584 0-1.064-0.464-1.064-1.040v-15.8c0.013-0.988 0.818-1.784 1.808-1.784 0.006 0 0.011 0 0.017 0h-0.001zM25.688 26.216c1.144 0 2.080-0.912 2.080-2.024 0-1.12-0.936-2.032-2.080-2.032-0.007-0-0.016-0-0.024-0-1.127 0-2.042 0.907-2.056 2.031v0.001c0 1.12 0.928 2.024 2.080 2.024zM21.024 23.696h1.616l0.016-0.080v-0.040l0.032-0.12 0.008-0.024 0.040-0.136 0.016-0.040c0.022-0.072 0.038-0.12 0.055-0.167l-0.007 0.023 0.032-0.080 0.024-0.048 0.032-0.080 0.032-0.048 0.064-0.128 0.040-0.072 0.080-0.12 0.032-0.040 0.056-0.080 0.024-0.032c0.063-0.080 0.123-0.15 0.186-0.218l-0.002 0.002 0.024-0.032 0.072-0.064 0.040-0.040c0.051-0.052 0.103-0.102 0.157-0.149l0.003-0.003 0.056-0.032c0.030-0.025 0.067-0.054 0.104-0.082l0.008-0.006 0.064-0.048 0.048-0.032 0.2-0.12 0.16-0.080h0.016l0.128-0.064 0.040-0.016 0.088-0.032 0.056-0.024c0.098-0.034 0.221-0.067 0.347-0.092l0.021-0.004 0.056-0.016c0.063-0.012 0.145-0.023 0.228-0.031l0.012-0.001 0.056-0.008 0.104-0.008h0.048c0.045-0.003 0.099-0.004 0.152-0.004s0.107 0.002 0.159 0.004l-0.007-0h0.144l0.056 0.016c0.245 0.023 0.47 0.074 0.683 0.15l-0.019-0.006 0.056 0.024 0.088 0.032 0.040 0.016 0.136 0.056 0.128 0.064 0.12 0.072 0.048 0.024 0.12 0.080 0.064 0.048c0.049 0.031 0.089 0.057 0.127 0.085l-0.007-0.005 0.040 0.040c0.066 0.054 0.123 0.104 0.179 0.155l-0.003-0.003 0.032 0.040 0.072 0.064 0.032 0.032 0.088 0.104 0.016 0.016 0.080 0.096 0.024 0.032 0.048 0.080 0.032 0.040 0.048 0.080 0.032 0.040 0.040 0.080 0.032 0.048 0.032 0.072 0.032 0.048 0.032 0.080 0.024 0.048c0.026 0.059 0.054 0.134 0.076 0.21l0.004 0.014 0.016 0.040 0.040 0.136 0.008 0.024 0.024 0.12 0.016 0.048 0.008 0.072h2.080c0.096 0 0.184-0.080 0.184-0.184v-2.056h-0.784v-0.984h0.784v-1.272c0-0.592-0.368-1.12-0.936-1.344l-1.888-0.736h-7.144v6.576zM21.024 16.136h6.48l-1.816-4.16c-0.204-0.452-0.651-0.76-1.17-0.76-0.005 0-0.010 0-0.015 0h-3.479v4.92zM8.256 26.216c1.144 0 2.080-0.912 2.080-2.024-0.011-1.127-0.927-2.037-2.056-2.037-0.048 0-0.095 0.002-0.142 0.005l0.006-0c-1.088 0.052-1.952 0.939-1.968 2.030l-0 0.002c0 1.12 0.928 2.024 2.080 2.024zM1.008 20.472h0.784v0.984h-0.784v2.184c0 0.032 0.024 0.056 0.056 0.056h4.136l0.016-0.072v-0.048l0.032-0.112v-0.032l0.048-0.136 0.016-0.040c0-0.032 0.016-0.064 0.032-0.088l0.016-0.056c0.039-0.099 0.068-0.168 0.099-0.235l-0.011 0.027 0.032-0.048 0.032-0.080c0.016-0.008 0.024-0.032 0.032-0.048 0.058-0.099 0.108-0.177 0.161-0.253l-0.009 0.013 0.048-0.064 0.032-0.040 0.080-0.096 0.008-0.016 0.096-0.104 0.024-0.032 0.072-0.064 0.096-0.096 0.048-0.040 0.064-0.056 0.048-0.032c0.029-0.024 0.065-0.053 0.102-0.081l0.010-0.007 0.064-0.048 0.048-0.032 0.2-0.12 0.16-0.080h0.008l0.136-0.064 0.040-0.016 0.088-0.032 0.056-0.024 0.080-0.024 0.064-0.016c0.052-0.016 0.127-0.036 0.203-0.052l0.021-0.004 0.056-0.016c0.063-0.012 0.145-0.023 0.228-0.031l0.012-0.001 0.056-0.008 0.096-0.008h0.056c0.044-0.003 0.096-0.004 0.148-0.004s0.104 0.001 0.155 0.004l-0.007-0h0.152l0.056 0.016c0.065 0.005 0.12 0.010 0.174 0.018l-0.014-0.002 0.080 0.016 0.056 0.016c0.096 0.020 0.171 0.039 0.245 0.061l-0.021-0.006 0.064 0.016 0.080 0.024 0.056 0.024 0.088 0.032 0.040 0.016c0.107 0.044 0.191 0.085 0.273 0.128l-0.017-0.008 0.048 0.024 0.080 0.048 0.048 0.024 0.12 0.080 0.064 0.048c0.044 0.029 0.081 0.056 0.116 0.083l-0.004-0.003 0.048 0.040 0.064 0.056 0.048 0.040 0.096 0.096 0.072 0.064 0.032 0.032c0.058 0.065 0.115 0.135 0.17 0.208l0.006 0.008 0.032 0.032 0.048 0.080 0.032 0.040c0.036 0.052 0.076 0.114 0.113 0.179l0.007 0.013 0.032 0.056 0.032 0.072 0.032 0.048 0.032 0.080 0.024 0.048 0.032 0.080 0.016 0.056 0.040 0.096 0.008 0.032 0.040 0.136v0.024l0.032 0.12 0.008 0.048 0.016 0.072h8.72v-14.624c0-0.272 0.224-0.496 0.504-0.496h7.296c0.008 0 0.048 0 0.072-0.040 0.007-0.011 0.011-0.025 0.011-0.040s-0.004-0.029-0.011-0.040l0 0-1.584-2.32c-0.16-0.216-0.408-0.352-0.68-0.352h-13.168c-0.080 0-0.144 0.032-0.192 0.080l-0.84 0.816c-0.24 0.24-0.56 0.36-0.904 0.36h-8.688c-0.448 0-0.816 0.36-0.816 0.8v12.64z">
			</path>
			<path
				d="M3.872 9.84h6.176c0.712 0 1.288 0.56 1.288 1.264v2.864c-0.009 0.7-0.579 1.264-1.28 1.264-0.003 0-0.006 0-0.009-0h-6.176c-0.712 0-1.288-0.56-1.288-1.264v-2.864c0-0.696 0.576-1.264 1.288-1.264zM3.592 13.968c0 0.16 0.128 0.28 0.28 0.28h6.176c0.16 0 0.28-0.128 0.28-0.28v-2.872c-0.004-0.151-0.128-0.272-0.28-0.272-0 0-0 0-0 0h-6.176c-0.16 0-0.28 0.12-0.28 0.272v2.88z">
			</path>
		</symbol>
		<symbol id="camper_full" viewBox="0 0 32 32">
			<path
				d="M1.824 6.056h8.688c0.004 0 0.008 0 0.013 0 0.071 0 0.135-0.031 0.179-0.080l0-0 0.84-0.8c0.24-0.24 0.56-0.368 0.904-0.368h13.176c0.608 0 1.176 0.296 1.52 0.8l1.576 2.304c0.224 0.328 0.24 0.752 0.056 1.096-0.192 0.344-0.56 0.56-0.96 0.56h-6.792v0.672h3.48c0.92 0 1.744 0.536 2.112 1.36l2.032 4.656 1.784 0.696c0.918 0.354 1.559 1.225 1.568 2.247v4.321c0 0.64-0.536 1.16-1.2 1.16h-2.072c-0.271 1.443-1.52 2.52-3.022 2.52-0.006 0-0.013-0-0.019-0h0.001c-0.008 0-0.017 0-0.026 0-1.502 0-2.751-1.077-3.019-2.501l-0.003-0.019h-11.344c-0.271 1.443-1.521 2.52-3.022 2.52-0.006 0-0.013-0-0.019-0h0.001c-0.008 0-0.017 0-0.026 0-1.502 0-2.751-1.077-3.019-2.501l-0.003-0.019h-4.144c-0.584 0-1.064-0.464-1.064-1.040v-15.8c0.013-0.988 0.818-1.784 1.808-1.784 0.006 0 0.011 0 0.017 0h-0.001zM25.688 26.216c1.144 0 2.080-0.912 2.080-2.024 0-1.12-0.936-2.032-2.080-2.032-0.007-0-0.016-0-0.024-0-1.127 0-2.042 0.907-2.056 2.031v0.001c0 1.12 0.928 2.024 2.080 2.024zM21.024 23.696h1.616l0.016-0.080v-0.040l0.032-0.12 0.008-0.024 0.040-0.136 0.016-0.040c0.022-0.072 0.038-0.12 0.055-0.167l-0.007 0.023 0.032-0.080 0.024-0.048 0.032-0.080 0.032-0.048 0.064-0.128 0.040-0.072 0.080-0.12 0.032-0.040 0.056-0.080 0.024-0.032c0.063-0.080 0.123-0.15 0.186-0.218l-0.002 0.002 0.024-0.032 0.072-0.064 0.040-0.040c0.051-0.052 0.103-0.102 0.157-0.149l0.003-0.003 0.056-0.032c0.030-0.025 0.067-0.054 0.104-0.082l0.008-0.006 0.064-0.048 0.048-0.032 0.2-0.12 0.16-0.080h0.016l0.128-0.064 0.040-0.016 0.088-0.032 0.056-0.024c0.098-0.034 0.221-0.067 0.347-0.092l0.021-0.004 0.056-0.016c0.063-0.012 0.145-0.023 0.228-0.031l0.012-0.001 0.056-0.008 0.104-0.008h0.048c0.045-0.003 0.099-0.004 0.152-0.004s0.107 0.002 0.159 0.004l-0.007-0h0.144l0.056 0.016c0.245 0.023 0.47 0.074 0.683 0.15l-0.019-0.006 0.056 0.024 0.088 0.032 0.040 0.016 0.136 0.056 0.128 0.064 0.12 0.072 0.048 0.024 0.12 0.080 0.064 0.048c0.049 0.031 0.089 0.057 0.127 0.085l-0.007-0.005 0.040 0.040c0.066 0.054 0.123 0.104 0.179 0.155l-0.003-0.003 0.032 0.040 0.072 0.064 0.032 0.032 0.088 0.104 0.016 0.016 0.080 0.096 0.024 0.032 0.048 0.080 0.032 0.040 0.048 0.080 0.032 0.040 0.040 0.080 0.032 0.048 0.032 0.072 0.032 0.048 0.032 0.080 0.024 0.048c0.026 0.059 0.054 0.134 0.076 0.21l0.004 0.014 0.016 0.040 0.040 0.136 0.008 0.024 0.024 0.12 0.016 0.048 0.008 0.072h2.080c0.096 0 0.184-0.080 0.184-0.184v-2.056h-0.784v-0.984h0.784v-1.272c0-0.592-0.368-1.12-0.936-1.344l-1.888-0.736h-7.144v6.576zM21.024 16.136h6.48l-1.816-4.16c-0.204-0.452-0.651-0.76-1.17-0.76-0.005 0-0.010 0-0.015 0h-3.479v4.92zM8.256 26.216c1.144 0 2.080-0.912 2.080-2.024-0.011-1.127-0.927-2.037-2.056-2.037-0.048 0-0.095 0.002-0.142 0.005l0.006-0c-1.088 0.052-1.952 0.939-1.968 2.030l-0 0.002c0 1.12 0.928 2.024 2.080 2.024zM1.008 20.472h0.784v0.984h-0.784v2.184c0 0.032 0.024 0.056 0.056 0.056h4.136l0.016-0.072v-0.048l0.032-0.112v-0.032l0.048-0.136 0.016-0.040c0-0.032 0.016-0.064 0.032-0.088l0.016-0.056c0.039-0.099 0.068-0.168 0.099-0.235l-0.011 0.027 0.032-0.048 0.032-0.080c0.016-0.008 0.024-0.032 0.032-0.048 0.058-0.099 0.108-0.177 0.161-0.253l-0.009 0.013 0.048-0.064 0.032-0.040 0.080-0.096 0.008-0.016 0.096-0.104 0.024-0.032 0.072-0.064 0.096-0.096 0.048-0.040 0.064-0.056 0.048-0.032c0.029-0.024 0.065-0.053 0.102-0.081l0.010-0.007 0.064-0.048 0.048-0.032 0.2-0.12 0.16-0.080h0.008l0.136-0.064 0.040-0.016 0.088-0.032 0.056-0.024 0.080-0.024 0.064-0.016c0.052-0.016 0.127-0.036 0.203-0.052l0.021-0.004 0.056-0.016c0.063-0.012 0.145-0.023 0.228-0.031l0.012-0.001 0.056-0.008 0.096-0.008h0.056c0.044-0.003 0.096-0.004 0.148-0.004s0.104 0.001 0.155 0.004l-0.007-0h0.152l0.056 0.016c0.065 0.005 0.12 0.010 0.174 0.018l-0.014-0.002 0.080 0.016 0.056 0.016c0.096 0.020 0.171 0.039 0.245 0.061l-0.021-0.006 0.064 0.016 0.080 0.024 0.056 0.024 0.088 0.032 0.040 0.016c0.107 0.044 0.191 0.085 0.273 0.128l-0.017-0.008 0.048 0.024 0.080 0.048 0.048 0.024 0.12 0.080 0.064 0.048c0.044 0.029 0.081 0.056 0.116 0.083l-0.004-0.003 0.048 0.040 0.064 0.056 0.048 0.040 0.096 0.096 0.072 0.064 0.032 0.032c0.058 0.065 0.115 0.135 0.17 0.208l0.006 0.008 0.032 0.032 0.048 0.080 0.032 0.040c0.036 0.052 0.076 0.114 0.113 0.179l0.007 0.013 0.032 0.056 0.032 0.072 0.032 0.048 0.032 0.080 0.024 0.048 0.032 0.080 0.016 0.056 0.040 0.096 0.008 0.032 0.040 0.136v0.024l0.032 0.12 0.008 0.048 0.016 0.072h8.72v-14.624c0-0.272 0.224-0.496 0.504-0.496h7.296c0.008 0 0.048 0 0.072-0.040 0.007-0.011 0.011-0.025 0.011-0.040s-0.004-0.029-0.011-0.040l0 0-1.584-2.32c-0.16-0.216-0.408-0.352-0.68-0.352h-13.168c-0.080 0-0.144 0.032-0.192 0.080l-0.84 0.816c-0.24 0.24-0.56 0.36-0.904 0.36h-8.688c-0.448 0-0.816 0.36-0.816 0.8v12.64z">
			</path>
			<path
				d="M14.080 9.84h3.192c0.64 0 1.168 0.512 1.168 1.136v10.544c0 0.272-0.224 0.488-0.504 0.488h-4.52c-0.002 0-0.005 0-0.008 0-0.271 0-0.491-0.218-0.496-0.488v-10.544c0-0.624 0.528-1.136 1.168-1.136zM13.92 21.016h3.512v-5.784h-3.512v5.784zM13.92 14.248h3.512v-3.272c0-0.088-0.072-0.16-0.16-0.16v0h-3.192c-0.088 0-0.16 0.072-0.16 0.16v3.272z">
			</path>
		</symbol>
		<symbol id="camper_van" viewBox="0 0 32 32">
			<path
				d="M1.824 6.056h8.688c0.004 0 0.008 0 0.013 0 0.071 0 0.135-0.031 0.179-0.080l0-0 0.84-0.8c0.24-0.24 0.56-0.368 0.904-0.368h13.176c0.608 0 1.176 0.296 1.52 0.8l1.576 2.304c0.224 0.328 0.24 0.752 0.056 1.096-0.192 0.344-0.56 0.56-0.96 0.56h-6.792v0.672h3.48c0.92 0 1.744 0.536 2.112 1.36l2.032 4.656 1.784 0.696c0.918 0.354 1.559 1.225 1.568 2.247v4.321c0 0.64-0.536 1.16-1.2 1.16h-2.072c-0.271 1.443-1.52 2.52-3.022 2.52-0.006 0-0.013-0-0.019-0h0.001c-0.008 0-0.017 0-0.026 0-1.502 0-2.751-1.077-3.019-2.501l-0.003-0.019h-11.344c-0.271 1.443-1.521 2.52-3.022 2.52-0.006 0-0.013-0-0.019-0h0.001c-0.008 0-0.017 0-0.026 0-1.502 0-2.751-1.077-3.019-2.501l-0.003-0.019h-4.144c-0.584 0-1.064-0.464-1.064-1.040v-15.8c0.013-0.988 0.818-1.784 1.808-1.784 0.006 0 0.011 0 0.017 0h-0.001zM25.688 26.216c1.144 0 2.080-0.912 2.080-2.024 0-1.12-0.936-2.032-2.080-2.032-0.007-0-0.016-0-0.024-0-1.127 0-2.042 0.907-2.056 2.031v0.001c0 1.12 0.928 2.024 2.080 2.024zM21.024 23.696h1.616l0.016-0.080v-0.040l0.032-0.12 0.008-0.024 0.040-0.136 0.016-0.040c0.022-0.072 0.038-0.12 0.055-0.167l-0.007 0.023 0.032-0.080 0.024-0.048 0.032-0.080 0.032-0.048 0.064-0.128 0.040-0.072 0.080-0.12 0.032-0.040 0.056-0.080 0.024-0.032c0.063-0.080 0.123-0.15 0.186-0.218l-0.002 0.002 0.024-0.032 0.072-0.064 0.040-0.040c0.051-0.052 0.103-0.102 0.157-0.149l0.003-0.003 0.056-0.032c0.030-0.025 0.067-0.054 0.104-0.082l0.008-0.006 0.064-0.048 0.048-0.032 0.2-0.12 0.16-0.080h0.016l0.128-0.064 0.040-0.016 0.088-0.032 0.056-0.024c0.098-0.034 0.221-0.067 0.347-0.092l0.021-0.004 0.056-0.016c0.063-0.012 0.145-0.023 0.228-0.031l0.012-0.001 0.056-0.008 0.104-0.008h0.048c0.045-0.003 0.099-0.004 0.152-0.004s0.107 0.002 0.159 0.004l-0.007-0h0.144l0.056 0.016c0.245 0.023 0.47 0.074 0.683 0.15l-0.019-0.006 0.056 0.024 0.088 0.032 0.040 0.016 0.136 0.056 0.128 0.064 0.12 0.072 0.048 0.024 0.12 0.080 0.064 0.048c0.049 0.031 0.089 0.057 0.127 0.085l-0.007-0.005 0.040 0.040c0.066 0.054 0.123 0.104 0.179 0.155l-0.003-0.003 0.032 0.040 0.072 0.064 0.032 0.032 0.088 0.104 0.016 0.016 0.080 0.096 0.024 0.032 0.048 0.080 0.032 0.040 0.048 0.080 0.032 0.040 0.040 0.080 0.032 0.048 0.032 0.072 0.032 0.048 0.032 0.080 0.024 0.048c0.026 0.059 0.054 0.134 0.076 0.21l0.004 0.014 0.016 0.040 0.040 0.136 0.008 0.024 0.024 0.12 0.016 0.048 0.008 0.072h2.080c0.096 0 0.184-0.080 0.184-0.184v-2.056h-0.784v-0.984h0.784v-1.272c0-0.592-0.368-1.12-0.936-1.344l-1.888-0.736h-7.144v6.576zM21.024 16.136h6.48l-1.816-4.16c-0.204-0.452-0.651-0.76-1.17-0.76-0.005 0-0.010 0-0.015 0h-3.479v4.92zM8.256 26.216c1.144 0 2.080-0.912 2.080-2.024-0.011-1.127-0.927-2.037-2.056-2.037-0.048 0-0.095 0.002-0.142 0.005l0.006-0c-1.088 0.052-1.952 0.939-1.968 2.030l-0 0.002c0 1.12 0.928 2.024 2.080 2.024zM1.008 20.472h0.784v0.984h-0.784v2.184c0 0.032 0.024 0.056 0.056 0.056h4.136l0.016-0.072v-0.048l0.032-0.112v-0.032l0.048-0.136 0.016-0.040c0-0.032 0.016-0.064 0.032-0.088l0.016-0.056c0.039-0.099 0.068-0.168 0.099-0.235l-0.011 0.027 0.032-0.048 0.032-0.080c0.016-0.008 0.024-0.032 0.032-0.048 0.058-0.099 0.108-0.177 0.161-0.253l-0.009 0.013 0.048-0.064 0.032-0.040 0.080-0.096 0.008-0.016 0.096-0.104 0.024-0.032 0.072-0.064 0.096-0.096 0.048-0.040 0.064-0.056 0.048-0.032c0.029-0.024 0.065-0.053 0.102-0.081l0.010-0.007 0.064-0.048 0.048-0.032 0.2-0.12 0.16-0.080h0.008l0.136-0.064 0.040-0.016 0.088-0.032 0.056-0.024 0.080-0.024 0.064-0.016c0.052-0.016 0.127-0.036 0.203-0.052l0.021-0.004 0.056-0.016c0.063-0.012 0.145-0.023 0.228-0.031l0.012-0.001 0.056-0.008 0.096-0.008h0.056c0.044-0.003 0.096-0.004 0.148-0.004s0.104 0.001 0.155 0.004l-0.007-0h0.152l0.056 0.016c0.065 0.005 0.12 0.010 0.174 0.018l-0.014-0.002 0.080 0.016 0.056 0.016c0.096 0.020 0.171 0.039 0.245 0.061l-0.021-0.006 0.064 0.016 0.080 0.024 0.056 0.024 0.088 0.032 0.040 0.016c0.107 0.044 0.191 0.085 0.273 0.128l-0.017-0.008 0.048 0.024 0.080 0.048 0.048 0.024 0.12 0.080 0.064 0.048c0.044 0.029 0.081 0.056 0.116 0.083l-0.004-0.003 0.048 0.040 0.064 0.056 0.048 0.040 0.096 0.096 0.072 0.064 0.032 0.032c0.058 0.065 0.115 0.135 0.17 0.208l0.006 0.008 0.032 0.032 0.048 0.080 0.032 0.040c0.036 0.052 0.076 0.114 0.113 0.179l0.007 0.013 0.032 0.056 0.032 0.072 0.032 0.048 0.032 0.080 0.024 0.048 0.032 0.080 0.016 0.056 0.040 0.096 0.008 0.032 0.040 0.136v0.024l0.032 0.12 0.008 0.048 0.016 0.072h8.72v-14.624c0-0.272 0.224-0.496 0.504-0.496h7.296c0.008 0 0.048 0 0.072-0.040 0.007-0.011 0.011-0.025 0.011-0.040s-0.004-0.029-0.011-0.040l0 0-1.584-2.32c-0.16-0.216-0.408-0.352-0.68-0.352h-13.168c-0.080 0-0.144 0.032-0.192 0.080l-0.84 0.816c-0.24 0.24-0.56 0.36-0.904 0.36h-8.688c-0.448 0-0.816 0.36-0.816 0.8v12.64z">
			</path>
			<path
				d="M14.080 9.84h3.192c0.64 0 1.168 0.512 1.168 1.136v10.544c0 0.272-0.224 0.488-0.504 0.488h-4.52c-0.002 0-0.005 0-0.008 0-0.271 0-0.491-0.218-0.496-0.488v-10.544c0-0.624 0.528-1.136 1.168-1.136zM13.92 21.016h3.512v-5.784h-3.512v5.784zM13.92 14.248h3.512v-3.272c0-0.088-0.072-0.16-0.16-0.16v0h-3.192c-0.088 0-0.16 0.072-0.16 0.16v3.272zM3.872 9.84h6.176c0.712 0 1.288 0.56 1.288 1.264v2.864c-0.009 0.7-0.579 1.264-1.28 1.264-0.003 0-0.006 0-0.009-0h-6.176c-0.712 0-1.288-0.56-1.288-1.264v-2.864c0-0.696 0.576-1.264 1.288-1.264zM3.592 13.968c0 0.16 0.128 0.28 0.28 0.28h6.176c0.16 0 0.28-0.128 0.28-0.28v-2.872c-0.004-0.151-0.128-0.272-0.28-0.272-0 0-0 0-0 0h-6.176c-0.16 0-0.28 0.12-0.28 0.272v2.88z">
			</path>
		</symbol>
		<symbol id="cd" viewBox="0 0 32 32">
			<path
				d="M16 2.8c-7.014 0.356-12.566 6.13-12.566 13.2s5.552 12.844 12.534 13.199l0.032 0.001c7.014-0.356 12.566-6.13 12.566-13.2s-5.552-12.844-12.534-13.199l-0.032-0.001zM16 5.2c5.965 0 10.8 4.835 10.8 10.8s-4.835 10.8-10.8 10.8v0c-5.965 0-10.8-4.835-10.8-10.8s4.835-10.8 10.8-10.8v0z">
			</path>
			<path
				d="M16 7.472c-4.706 0.009-8.519 3.822-8.528 8.527v0.001c0 0.663 0.537 1.2 1.2 1.2v0c0.663 0 1.2-0.537 1.2-1.2v0c0-3.392 2.72-6.128 6.128-6.128 0.663 0 1.2-0.537 1.2-1.2v0c0-0.663-0.537-1.2-1.2-1.2v0z">
			</path>
			<path
				d="M16 11.472c-1.408 0-2.624 0.576-3.392 1.44-0.784 0.88-1.136 1.984-1.136 3.088s0.352 2.208 1.12 3.088c0.8 0.864 2 1.44 3.408 1.44s2.624-0.576 3.392-1.44c0.784-0.88 1.136-1.984 1.136-3.088s-0.352-2.208-1.12-3.088c-0.824-0.888-1.997-1.441-3.299-1.441-0.038 0-0.077 0-0.115 0.001l0.006-0zM16 13.872c0.8 0 1.28 0.256 1.6 0.64 0.32 0.368 0.528 0.928 0.528 1.488s-0.192 1.12-0.528 1.488c-0.32 0.384-0.8 0.64-1.6 0.64s-1.28-0.256-1.6-0.64c-0.32-0.368-0.528-0.928-0.528-1.488s0.192-1.12 0.528-1.488c0.32-0.384 0.8-0.64 1.6-0.64z">
			</path>
		</symbol>
		<symbol id="freezer" viewBox="0 0 32 32">
			<path
				d="M8.608 1.968c-1.664 0-3.040 1.376-3.040 3.040v20.384c0 1.664 1.376 3.040 3.040 3.040h14.8c1.672-0.009 3.024-1.367 3.024-3.040 0 0 0-0 0-0v0-20.384c0 0 0-0 0-0 0-1.673-1.352-3.031-3.023-3.040h-0.001zM8.608 4.048h14.8c0.56 0 0.96 0.384 0.96 0.96v20.384c0 0.544-0.416 0.96-0.96 0.96h-14.8c-0.53 0-0.96-0.43-0.96-0.96v0-20.384c0-0.576 0.384-0.96 0.96-0.96z">
			</path>
			<path
				d="M10.32 5.488c-0.574 0-1.040 0.466-1.040 1.040v0 4.032c0 0.574 0.466 1.040 1.040 1.040v0c0.574 0 1.040-0.466 1.040-1.040v0-4.032c0-0.574-0.466-1.040-1.040-1.040v0zM6.608 12.080c-0.574 0-1.040 0.466-1.040 1.040v0c0 0.574 0.466 1.040 1.040 1.040v0h18.784c0.574 0 1.040-0.466 1.040-1.040v0c0-0.574-0.466-1.040-1.040-1.040v0zM10.32 14.352c-0.574 0-1.040 0.466-1.040 1.040v4.048c0 0.574 0.466 1.040 1.040 1.040v0c0.574 0 1.040-0.466 1.040-1.040v0-4.048c0-0.574-0.466-1.040-1.040-1.040v0zM8.432 26.352c-0.574 0-1.040 0.466-1.040 1.040v0 0.688c0 1.056 0.864 1.92 1.92 1.952 0.002 0 0.005 0 0.008 0s0.006 0 0.008-0h1.648c1.072 0 1.952-0.88 1.952-1.952v-0.688c0-0.574-0.466-1.040-1.040-1.040v0c-0.574 0-1.040 0.466-1.040 1.040v0 0.56h-1.376v-0.56c0-0.574-0.466-1.040-1.040-1.040v0zM20.112 26.352c-0.005-0-0.010-0-0.016-0-0.574 0-1.040 0.466-1.040 1.040 0 0 0 0 0 0v0 0.688c0 1.072 0.88 1.952 1.952 1.952h1.664c1.072 0 1.952-0.88 1.952-1.952v-0.688c0-0.574-0.466-1.040-1.040-1.040v0c-0.574 0-1.040 0.466-1.040 1.040v0 0.56h-1.408v-0.56c0-0.574-0.466-1.040-1.040-1.040v0z">
			</path>
		</symbol>
		<symbol id="gas" viewBox="0 0 32 32">
			<path
				d="M25.072 13.984c-0.368-0.448-0.816-0.832-1.232-1.232-1.072-0.912-2.288-1.552-3.312-2.512-1.388-1.315-2.251-3.171-2.251-5.229 0-1.249 0.318-2.424 0.878-3.448l-0.019 0.038c-1.532 0.398-2.867 1.089-4.003 2.015l0.019-0.015c-2.819 2.124-4.622 5.465-4.622 9.227 0 1.517 0.293 2.965 0.826 4.291l-0.027-0.078c0.064 0.16 0.128 0.32 0.128 0.496 0 0.336-0.24 0.64-0.56 0.768-0.109 0.043-0.236 0.068-0.369 0.068-0.264 0-0.505-0.098-0.688-0.261l0.001 0.001c-1.144-1.272-1.844-2.963-1.844-4.818 0-1.159 0.273-2.254 0.759-3.224l-0.019 0.042c-2.41 1.94-3.938 4.889-3.938 8.195 0 0.218 0.007 0.435 0.020 0.65l-0.001-0.030c0.096 0.768 0.192 1.52 0.48 2.272 0.208 0.912 0.64 1.808 1.12 2.608 1.796 2.628 4.62 4.44 7.88 4.858l0.056 0.006c3.424 0.416 7.088-0.16 9.712-2.4 1.915-1.59 3.126-3.972 3.126-6.636 0-1.209-0.249-2.36-0.699-3.404l0.021 0.056-0.208-0.4c-0.336-0.688-1.232-1.904-1.232-1.904zM20.016 23.504c-0.498 0.399-1.084 0.712-1.724 0.903l-0.036 0.009c-1.792 0.608-3.584-0.24-4.64-1.232 1.637-0.313 2.93-1.514 3.369-3.074l0.007-0.030c0.272-1.2-0.24-2.208-0.448-3.36-0.192-1.12-0.16-2.080 0.272-3.12 0.32 0.576 0.64 1.152 1.008 1.6 1.232 1.504 3.168 2.176 3.584 4.224 0.064 0.224 0.096 0.432 0.096 0.656 0.001 0.026 0.001 0.058 0.001 0.089 0 1.323-0.573 2.512-1.485 3.332l-0.004 0.004z">
			</path>
		</symbol>
		<symbol id="heart" viewBox="0 0 32 32">
			<path
				d="M8.987 2.347c-2.267 0.133-4.32 1.173-5.867 2.72-1.53 1.508-2.528 3.55-2.692 5.824l-0.002 0.029c-0.133 2.267 0.72 4.68 2.72 6.68l11.787 11.787c0.277 0.275 0.659 0.445 1.080 0.445s0.803-0.17 1.080-0.445l11.787-11.787c1.596-1.607 2.583-3.822 2.583-6.267s-0.987-4.66-2.584-6.267l0 0c-1.607-1.596-3.822-2.583-6.267-2.583s-4.66 0.987-6.267 2.583l0-0-0.333 0.32-0.333-0.32c-1.595-1.681-3.845-2.727-6.34-2.727-0.12 0-0.239 0.002-0.357 0.007l0.017-0.001zM9.16 5.413c0.082-0.004 0.178-0.007 0.274-0.007 1.616 0 3.068 0.701 4.068 1.815l0.004 0.005 1.413 1.413c0.277 0.275 0.659 0.445 1.080 0.445s0.803-0.17 1.080-0.445l1.413-1.413c1.047-1.059 2.5-1.715 4.107-1.715s3.060 0.656 4.106 1.715l0.001 0.001c1.059 1.047 1.715 2.5 1.715 4.107s-0.656 3.060-1.715 4.106l-0.001 0.001-1.413 1.413-9.293 9.28-10.707-10.693c-1.119-1.005-1.82-2.457-1.82-4.073 0-0.096 0.002-0.192 0.007-0.287l-0.001 0.013c0.080-1.413 0.76-2.8 1.813-3.867 1.067-1.053 2.453-1.733 3.867-1.813z">
			</path>
		</symbol>
		<symbol id="hob" viewBox="0 0 32 32">
			<path
				d="M4 5.472c-1.389 0.018-2.51 1.139-2.528 2.526l-0 0.002v17.312c-0.016 1.392 1.12 2.56 2.528 2.56h24c1.392 0 2.56-1.168 2.528-2.56v-17.312c-0.018-1.389-1.139-2.51-2.526-2.528l-0.002-0h-16zM4 7.872h6.8v17.6h-6.8c-0.080 0-0.128-0.048-0.128-0.128v-17.344c0-0.080 0.048-0.128 0.128-0.128zM13.2 7.872h14.8c0.080 0 0.128 0.048 0.128 0.128v17.344c0 0.080-0.048 0.128-0.128 0.128h-14.8z">
			</path>
			<path
				d="M25.36 9.696c-0.191-0.135-0.43-0.216-0.687-0.216-0.402 0-0.757 0.197-0.975 0.5l-0.002 0.004-8 11.328c-0.135 0.191-0.216 0.43-0.216 0.687 0 0.402 0.197 0.757 0.5 0.975l0.004 0.002c0.191 0.135 0.43 0.216 0.687 0.216 0.402 0 0.757-0.197 0.975-0.5l0.002-0.004 8-11.328c0.135-0.191 0.216-0.43 0.216-0.687 0-0.402-0.197-0.757-0.5-0.975l-0.004-0.002zM7.328 10.128c-0.663 0-1.2 0.537-1.2 1.2v0 2.672c0 0.663 0.537 1.2 1.2 1.2v0c0.663 0 1.2-0.537 1.2-1.2v0-2.672c0-0.663-0.537-1.2-1.2-1.2v0z">
			</path>
			<path
				d="M8.672 18c0-0.738-0.598-1.336-1.336-1.336s-1.336 0.598-1.336 1.336v0c0 0.738 0.598 1.336 1.336 1.336s1.336-0.598 1.336-1.336v0zM8.672 22c0-0.738-0.598-1.336-1.336-1.336s-1.336 0.598-1.336 1.336v0c0 0.738 0.598 1.336 1.336 1.336s1.336-0.598 1.336-1.336v0z">
			</path>
		</symbol>
		<symbol id="kitchen" viewBox="0 0 32 32">
			<path
				d="M25.808 2.896c-0.14-0.062-0.304-0.099-0.477-0.099-0.325 0-0.62 0.129-0.836 0.339l0-0c-6.64 6.336-7.056 11.904-7.024 16.864 0.009 0.656 0.543 1.184 1.2 1.184 0 0 0 0 0 0h5.456v1.632c-0.034-0.011-0.076-0.022-0.12-0.031l-0.008-0.001c-0.663 0-1.2 0.537-1.2 1.2v0 4c0 0.663 0.537 1.2 1.2 1.2v0h1.328c0.663 0 1.2-0.537 1.2-1.2v0-24c0-0.001 0-0.003 0-0.004 0-0.489-0.293-0.91-0.712-1.097l-0.008-0.003zM6.672 4.128c-0.663 0-1.2 0.537-1.2 1.2v0 4c0 1.632 0.656 3.008 1.648 3.904 0.672 0.576 1.536 0.672 2.352 0.848v13.92c0 0.663 0.537 1.2 1.2 1.2v0c0.663 0 1.2-0.537 1.2-1.2v0-13.92c0.816-0.176 1.68-0.272 2.352-0.848 1.016-0.944 1.65-2.287 1.65-3.778 0-0.044-0.001-0.088-0.002-0.132l0 0.007v-4c0-0.663-0.537-1.2-1.2-1.2v0c-0.663 0-1.2 0.537-1.2 1.2v0 4c0 1.040-0.352 1.664-0.848 2.096-0.192 0.176-0.512 0.16-0.752 0.272v-6.368c0-0.663-0.537-1.2-1.2-1.2v0c-0.663 0-1.2 0.537-1.2 1.2v0 6.368c-0.24-0.112-0.56-0.096-0.752-0.272-0.496-0.432-0.848-1.056-0.848-2.096v-4c0-0.663-0.537-1.2-1.2-1.2v0zM24.128 7.216v11.584h-4.128c-0.008-0.197-0.013-0.428-0.013-0.66 0-4.199 1.57-8.031 4.156-10.941l-0.015 0.017z">
			</path>
		</symbol>
		<symbol id="map-pin" viewBox="0 0 29 32">
			<path
				d="M14.4 0.128c-7.287 0.009-13.191 5.913-13.2 13.199v0.001c0 5.184 3.232 9.728 6.336 13.008 1.854 1.949 3.88 3.701 6.064 5.242l0.128 0.086c0.188 0.129 0.421 0.206 0.672 0.206s0.484-0.077 0.676-0.208l-0.004 0.003s3.104-2.064 6.192-5.328c3.104-3.28 6.336-7.824 6.336-13.008 0-7.28-5.92-13.2-13.2-13.2zM14.4 2.528c0.005 0 0.010 0 0.016 0 5.956 0 10.784 4.828 10.784 10.784 0 0.006 0 0.011 0 0.017v-0.001c0 4.16-2.768 8.288-5.664 11.36-2.56 2.704-4.576 4.032-5.136 4.416-0.56-0.384-2.56-1.712-5.12-4.432-2.912-3.040-5.68-7.2-5.68-11.344 0-0.005 0-0.010 0-0.016 0-5.956 4.828-10.784 10.784-10.784 0.006 0 0.011 0 0.017 0h-0.001z">
			</path>
			<path
				d="M14.4 8.128c-1.632 0-3.008 0.656-3.904 1.648-0.806 0.926-1.297 2.145-1.297 3.478 0 0.026 0 0.052 0.001 0.078l-0-0.004c0 1.28 0.416 2.56 1.296 3.552 0.944 1.016 2.287 1.65 3.778 1.65 0.044 0 0.088-0.001 0.132-0.002l-0.007 0c1.632 0 3.008-0.656 3.904-1.648 0.88-1.008 1.296-2.288 1.296-3.552 0-1.28-0.416-2.56-1.296-3.552-0.944-1.016-2.287-1.65-3.778-1.65-0.044 0-0.088 0.001-0.132 0.002l0.007-0zM14.4 10.528c1.040 0 1.664 0.352 2.096 0.848 0.448 0.496 0.704 1.216 0.704 1.952s-0.256 1.44-0.704 1.952c-0.432 0.496-1.056 0.848-2.096 0.848s-1.664-0.352-2.096-0.848c-0.438-0.515-0.704-1.188-0.704-1.922 0-0.010 0-0.021 0-0.031v0.002c0-0.736 0.256-1.44 0.704-1.952 0.432-0.496 1.056-0.848 2.096-0.848z">
			</path>
		</symbol>
		<symbol id="microwave" viewBox="0 0 32 32">
			<path
				d="M2.304 4.592c-0.010-0-0.021-0-0.032-0-1.255 0-2.272 1.017-2.272 2.272 0 0.006 0 0.011 0 0.017v-0.001 18.24c-0.016 1.248 1.024 2.304 2.288 2.288h27.392c1.264 0.016 2.304-1.040 2.288-2.288v-18.24c0.016-1.232-1.008-2.24-2.24-2.256l-0.032-0.048zM2.272 6.832h27.456l0.016 0.032v18.256l-0.016 0.032-27.472-0.016v-18.288c0-0.032 0-0.016 0.016-0.016z">
			</path>
			<path
				d="M6.896 9.168c-0.005-0-0.010-0-0.016-0-1.249 0-2.263 1.008-2.272 2.255v9.153c0 1.248 1.040 2.272 2.288 2.256h12.528c1.248 0.016 2.288-1.008 2.288-2.256v-9.152c0-1.248-1.040-2.272-2.288-2.256zM25.136 10.288c-0.623 0-1.128 0.505-1.128 1.128s0.505 1.128 1.128 1.128v0h1.152c0.619 0 1.12-0.501 1.12-1.12s-0.501-1.12-1.12-1.12v0zM6.864 11.408h12.592l0.016 0.016v9.152h-12.624v-9.152h0.016zM25.12 14.88c-0.619 0-1.12 0.501-1.12 1.12s0.501 1.12 1.12 1.12h1.168c0.619 0 1.12-0.501 1.12-1.12s-0.501-1.12-1.12-1.12v0z">
			</path>
		</symbol>
		<symbol id="petrol" viewBox="0 0 32 32">
			<path
				d="M26.352 9.648l0.016-0.016-4.96-4.96-1.408 1.408 2.816 2.816c-1.279 0.484-2.172 1.698-2.172 3.121 0 1.838 1.49 3.328 3.328 3.328 0.491 0 0.957-0.106 1.377-0.297l-0.021 0.008v9.6c0 0.733-0.595 1.328-1.328 1.328s-1.328-0.595-1.328-1.328v0-5.984c0-1.476-1.196-2.672-2.672-2.672v0h-1.328v-9.328c0-1.476-1.196-2.672-2.672-2.672v0h-8c-1.476 0-2.672 1.196-2.672 2.672v0 21.328h13.344v-10h2v6.672c0 1.838 1.49 3.328 3.328 3.328s3.328-1.49 3.328-3.328v0-12.672c0-0.928-0.368-1.76-0.96-2.352zM16 18v7.328h-8v-9.328h8v2zM16 13.328h-8v-6.656h8v6.656zM24 13.328c-0.733 0-1.328-0.595-1.328-1.328s0.595-1.328 1.328-1.328v0c0.733 0 1.328 0.595 1.328 1.328s-0.595 1.328-1.328 1.328v0z">
			</path>
		</symbol>
		<symbol id="radio" viewBox="0 0 32 32">
			<path
				d="M13.344 6.96c-2.512 0-4.416 0-6 0.208-1.568 0.208-2.88 0.672-3.84 1.648h-0.016c-0.923 1.030-1.527 2.363-1.646 3.833l-0.002 0.023c-0.208 1.568-0.208 3.472-0.208 6v2.512l0.096-0.096c0.016 1.232 0 2.64 0.128 3.568 0.208 1.568 0.672 2.88 1.648 3.84v0.016c0.992 0.96 2.288 1.44 3.856 1.648s3.472 0.208 5.984 0.208h5.312c2.528 0 4.432 0 6-0.208s2.88-0.672 3.84-1.648h0.016c0.96-0.992 1.44-2.288 1.648-3.856s0.208-3.472 0.208-5.984c0-2.528 0-4.432-0.208-6-0.112-1.49-0.718-2.82-1.653-3.845l0.005 0.005c-1.019-0.935-2.349-1.546-3.818-1.663l-0.022-0.001c-1.584-0.208-3.488-0.208-6-0.208zM13.344 9.040h5.328c2.512 0 4.368 0 5.712 0.192 1.328 0.176 2.080 0.48 2.656 1.072 0.576 0.576 0.88 1.312 1.056 2.64 0.192 1.344 0.192 3.2 0.192 5.728 0 2.512 0 4.368-0.192 5.712-0.16 1.328-0.48 2.080-1.056 2.656-0.592 0.576-1.328 0.88-2.656 1.056-1.344 0.192-3.2 0.192-5.728 0.192h-5.312c-2.512 0-4.368 0-5.712-0.192-1.328-0.16-2.080-0.48-2.656-1.056-0.576-0.592-0.88-1.328-1.056-2.656-0.192-1.344-0.192-3.2-0.192-5.728v-0.48c0-2.192 0-4 0.16-5.232 0.192-1.328 0.48-2.080 1.072-2.656s1.328-0.88 2.672-1.056c1.328-0.192 3.2-0.192 5.712-0.192z">
			</path>
			<path
				d="M9.328 10.96c-2.040 0.018-3.687 1.671-3.696 3.711v0.001c0 2.032 1.664 3.68 3.68 3.696h13.28c0.113 0.012 0.244 0.019 0.376 0.019 1.023 0 1.948-0.417 2.615-1.091l0-0c0.625-0.681 1.008-1.592 1.008-2.594 0-0.016-0-0.033-0-0.049l0 0.002c0-0.928-0.32-1.888-1.008-2.624-0.67-0.674-1.597-1.091-2.622-1.091-0.13 0-0.259 0.007-0.386 0.020l0.016-0.001h-13.264zM22.768 13.040c0.672-0.064 1.040 0.128 1.312 0.416s0.432 0.736 0.432 1.2c0 0.48-0.16 0.928-0.432 1.216s-0.64 0.48-1.328 0.416h-13.424c-0.897 0-1.624-0.727-1.624-1.624s0.727-1.624 1.624-1.624h13.392zM10 19.632c-0.736 0-1.472 0.24-2.080 0.768-0.576 0.512-0.96 1.344-0.96 2.272s0.384 1.76 0.96 2.272c0.608 0.528 1.344 0.768 2.080 0.768s1.472-0.24 2.080-0.768c0.576-0.512 0.96-1.344 0.96-2.272s-0.384-1.76-0.96-2.272c-0.541-0.477-1.256-0.768-2.038-0.768-0.015 0-0.029 0-0.044 0l0.002-0zM10 21.712c0.272 0 0.528 0.096 0.688 0.24s0.272 0.32 0.272 0.72-0.112 0.576-0.272 0.72c-0.181 0.149-0.415 0.24-0.67 0.24-0.006 0-0.012-0-0.018-0h0.001c-0.005 0-0.011 0-0.018 0-0.255 0-0.49-0.091-0.672-0.242l0.002 0.001c-0.16-0.144-0.272-0.32-0.272-0.72s0.112-0.576 0.272-0.72c0.16-0.144 0.416-0.24 0.688-0.24z">
			</path>
			<path
				d="M20.352 1.696c-0.107-0.041-0.232-0.065-0.362-0.065-0.159 0-0.31 0.036-0.445 0.1l0.006-0.003-11.328 5.328c-0.349 0.173-0.586 0.526-0.586 0.935 0 0.166 0.039 0.323 0.108 0.463l-0.003-0.006c0.174 0.346 0.526 0.579 0.932 0.579 0.161 0 0.314-0.037 0.45-0.102l-0.006 0.003 11.328-5.312c0.349-0.173 0.586-0.526 0.586-0.935 0-0.166-0.039-0.323-0.108-0.463l0.003 0.006c-0.118-0.244-0.32-0.431-0.569-0.526l-0.007-0.002zM20 14.288c-0.574 0-1.040 0.466-1.040 1.040v2c0 0.574 0.466 1.040 1.040 1.040v0c0.574 0 1.040-0.466 1.040-1.040v-2c0-0.574-0.466-1.040-1.040-1.040v0zM17.328 21.632c-0.574 0-1.040 0.466-1.040 1.040v0c0 0.574 0.466 1.040 1.040 1.040v0h6.672c0.574 0 1.040-0.466 1.040-1.040v0c0-0.574-0.466-1.040-1.040-1.040v0z">
			</path>
		</symbol>
		<symbol id="shower" viewBox="0 0 32 32">
			<path
				d="M5.328 4.048c-0.004-0-0.009-0-0.014-0-0.707 0-1.28 0.573-1.28 1.28 0 0.357 0.146 0.68 0.382 0.912l2.592 2.592c-0.904 1.134-1.502 2.55-1.646 4.097l-0.002 0.031c-0 0.024-0 0.053-0 0.082 0 1.811 0.634 3.475 1.692 4.781l-0.011-0.014-1.28 1.28c-0.23 0.232-0.372 0.551-0.372 0.904 0 0.709 0.575 1.284 1.284 1.284 0.357 0 0.679-0.145 0.912-0.38l13.328-13.328c0.233-0.233 0.378-0.556 0.378-0.912 0-0.712-0.577-1.29-1.29-1.29-0.356 0-0.679 0.144-0.912 0.378l-1.28 1.28c-1.292-1.047-2.955-1.68-4.766-1.68-0.023 0-0.046 0-0.069 0l0.004-0c-1.59 0.134-3.020 0.733-4.175 1.66l0.015-0.012-2.576-2.576c-0.231-0.228-0.548-0.368-0.898-0.368-0.005 0-0.010 0-0.015 0h0.001zM13.12 7.904c0.96-0.048 1.92 0.32 2.896 0.944l-7.168 7.152c-0.64-0.96-0.992-1.952-0.944-2.896 0.096-1.28 0.704-2.56 1.696-3.52 0.96-0.96 2.24-1.6 3.52-1.68zM13.328 20.048c-0.707 0-1.28 0.573-1.28 1.28v0 0.016c0 0.707 0.573 1.28 1.28 1.28s1.28-0.573 1.28-1.28v0-0.016c0-0.707-0.573-1.28-1.28-1.28v0zM18.24 15.52c-0.707 0-1.28 0.573-1.28 1.28v0 0.016c0 0.707 0.573 1.28 1.28 1.28s1.28-0.573 1.28-1.28v0c0-0.707-0.573-1.28-1.28-1.28v0zM22.816 11.392c-0.707 0-1.28 0.573-1.28 1.28s0.573 1.28 1.28 1.28c0.701 0 1.271-0.564 1.28-1.263v-0.017c0-0.707-0.573-1.28-1.28-1.28v0zM14.368 25.792c-0.707 0-1.28 0.573-1.28 1.28v0.016c0 0.707 0.573 1.28 1.28 1.28s1.28-0.573 1.28-1.28v0c0-0.707-0.573-1.28-1.28-1.28v0zM18.896 21.472c-0.707 0-1.28 0.573-1.28 1.28s0.573 1.28 1.28 1.28c0.701 0 1.271-0.564 1.28-1.263v-0.017c0-0.707-0.573-1.28-1.28-1.28v0zM28.432 12.672c-0.707 0-1.28 0.573-1.28 1.28v0 0.032c0 0.707 0.573 1.28 1.28 1.28s1.28-0.573 1.28-1.28v-0.016c0-0.707-0.573-1.28-1.28-1.28v0zM23.728 17.040c-0.707 0-1.28 0.573-1.28 1.28v0 0.016c0 0.707 0.573 1.28 1.28 1.28s1.28-0.573 1.28-1.28v0c0-0.707-0.573-1.28-1.28-1.28v0z">
			</path>
		</symbol>
		<symbol id="star" viewBox="0 0 32 32">
			<path
				d="M15.12 1.68c0.173-0.315 0.502-0.525 0.88-0.525s0.707 0.21 0.877 0.52l0.003 0.005 3.8 7.16c0.12 0.26 0.4 0.46 0.7 0.52l7.96 1.38c0.8 0.12 1.12 1.1 0.56 1.68l-5.64 5.8c-0.179 0.181-0.289 0.429-0.289 0.704 0 0.048 0.003 0.095 0.010 0.142l-0.001-0.005 1.16 8c0.007 0.044 0.011 0.095 0.011 0.147 0 0.552-0.448 1-1 1-0.164 0-0.32-0.040-0.457-0.11l0.006 0.003-7.26-3.56c-0.128-0.064-0.28-0.102-0.44-0.102s-0.312 0.038-0.446 0.105l0.006-0.003-7.26 3.56c-0.131 0.068-0.286 0.107-0.451 0.107-0.552 0-1-0.448-1-1 0-0.052 0.004-0.103 0.012-0.153l-0.001 0.006 1.16-8c0.006-0.041 0.009-0.088 0.009-0.136 0-0.274-0.111-0.523-0.289-0.704l0 0-5.64-5.82c-0.173-0.179-0.279-0.424-0.279-0.693 0-0.495 0.36-0.907 0.833-0.986l0.006-0.001 7.96-1.4c0.311-0.049 0.57-0.236 0.717-0.495l0.003-0.005 3.78-7.14z">
			</path>
		</symbol>
		<symbol id="toilet-paper" viewBox="0 0 32 32">
			<path
				d="M24 4c1.936 0 3.264 1.648 4.032 3.312 0.768 1.648 1.232 3.808 1.28 6.144l0.016 0.544v12.672c0 0 0 0.001 0 0.001 0 0.733-0.595 1.328-1.328 1.328-0.017 0-0.034-0-0.050-0.001l0.002 0-0.16-0.016-3.792-0.64-3.776 0.64c-0.16 0.032-0.32 0.016-0.48 0l-0.16-0.048-3.584-1.216-3.584 1.2c-0.126 0.044-0.272 0.069-0.423 0.069-0.685 0-1.248-0.518-1.32-1.183l-0.001-0.006v-4.016c-0.72 0.736-1.6 1.232-2.672 1.232-1.936 0-3.264-1.648-4.048-3.312-0.8-1.776-1.28-4.16-1.28-6.688 0-2.544 0.48-4.912 1.28-6.688 0.736-1.6 1.984-3.168 3.792-3.296l0.256-0.032h16zM24 6.672h-12.288l0.32 0.64c0.832 1.776 1.296 4.16 1.296 6.688v10.816l2.24-0.752c0.126-0.044 0.272-0.070 0.424-0.070s0.298 0.025 0.433 0.072l-0.009-0.003 3.68 1.232 3.68-0.608c0.067-0.012 0.145-0.019 0.224-0.019s0.157 0.007 0.232 0.020l-0.008-0.001 2.448 0.4v-11.088c0-2.24-0.432-4.208-1.056-5.568-0.672-1.472-1.344-1.76-1.616-1.76zM8 6.672c-0.272 0-0.944 0.288-1.616 1.76-0.64 1.36-1.056 3.328-1.056 5.568s0.432 4.208 1.056 5.568c0.672 1.472 1.344 1.76 1.616 1.76s0.944-0.288 1.616-1.76c0.64-1.36 1.056-3.328 1.056-5.568s-0.432-4.208-1.072-5.568c-0.672-1.472-1.344-1.76-1.616-1.76zM8 11.328c0.736 0 1.328 1.2 1.328 2.672s-0.592 2.672-1.328 2.672c-0.736 0-1.328-1.2-1.328-2.672s0.592-2.672 1.328-2.672z">
			</path>
		</symbol>
		<symbol id="transmission" viewBox="0 0 32 32">
			<path
				d="M6.656 3.008c-1.776 0-3.68 1.344-3.84 3.568-0.017 0.135-0.027 0.292-0.027 0.451 0 2.059 1.669 3.728 3.728 3.728 0.049 0 0.098-0.001 0.146-0.003l-0.007 0c0.976 0 1.984-0.32 2.752-1.056 0.704-0.696 1.14-1.662 1.14-2.73 0-0.137-0.007-0.273-0.021-0.406l0.001 0.017c-0.17-2.004-1.839-3.566-3.872-3.568h-0zM6.656 5.408c0.752 0 1.392 0.288 1.472 1.36 0.048 0.64-0.112 0.96-0.368 1.184-0.256 0.24-0.672 0.4-1.104 0.4-0.416 0-0.832-0.16-1.088-0.4-0.256-0.224-0.416-0.528-0.368-1.184 0.080-1.072 0.72-1.36 1.456-1.36zM22.672 9.472c-0.663 0-1.2 0.537-1.2 1.2v0 6.656c0 0.663 0.537 1.2 1.2 1.2v0c0.663 0 1.2-0.537 1.2-1.2v0-1.456h0.8c0.96 0 1.84-0.4 2.4-1.024 0.503-0.58 0.81-1.342 0.81-2.176s-0.307-1.596-0.813-2.18l0.003 0.004c-0.56-0.624-1.44-1.024-2.4-1.024zM23.872 11.872h0.8c0.368 0 0.48 0.096 0.608 0.224 0.112 0.128 0.192 0.336 0.192 0.576s-0.080 0.448-0.192 0.576c-0.112 0.128-0.24 0.224-0.608 0.224h-0.8zM22.672 21.472c-0.663 0-1.2 0.537-1.2 1.2v0 5.328c0 0.663 0.537 1.2 1.2 1.2v0h1.232c1.28 0.096 2.4-0.368 3.12-1.12 0.736-0.768 1.056-1.76 1.056-2.736s-0.32-1.984-1.056-2.752c-0.701-0.703-1.671-1.138-2.742-1.138-0.133 0-0.264 0.007-0.394 0.020l0.016-0.001h0.096zM24.096 23.872c0.64-0.048 0.96 0.112 1.184 0.368 0.24 0.256 0.4 0.672 0.4 1.104 0 0.416-0.16 0.832-0.4 1.088s-0.528 0.416-1.184 0.368c-0.014-0.001-0.031-0.001-0.048-0.001s-0.034 0-0.050 0.001l0.002-0h-0.128v-2.928h0.128c0.014 0.001 0.031 0.001 0.048 0.001s0.034-0 0.050-0.001l-0.002 0z">
			</path>
			<path
				d="M6.608 8.56c-0.8-0.032-1.136 0.112-1.136 0.768v3.984c-0.016 1.392 1.12 2.56 2.528 2.56h2.8v8.128c0 1.376 1.152 2.528 2.528 2.528h4c0.663 0 1.2-0.537 1.2-1.2s-0.537-1.2-1.2-1.2v0h-4c-0.080 0-0.128-0.048-0.128-0.128v-8.128h4.128c0.663 0 1.2-0.537 1.2-1.2s-0.537-1.2-1.2-1.2v0h-9.328c-0.080 0-0.128-0.048-0.128-0.128v-4.016c-0.245-0.457-0.718-0.764-1.263-0.768h-0.001z">
			</path>
		</symbol>
		<symbol id="tv" viewBox="0 0 32 32">
			<path
				d="M8.976 0.976c-0.264 0.261-0.428 0.623-0.428 1.024s0.164 0.763 0.427 1.024l0 0 3.552 3.536h-4.528c-3.001 0.009-5.431 2.439-5.44 5.439v10.001c0 2.992 2.448 5.44 5.44 5.44h16c2.992 0 5.44-2.448 5.44-5.44v-10c0-2.992-2.448-5.44-5.44-5.44h-4.528l3.552-3.536c0.264-0.261 0.428-0.623 0.428-1.024s-0.164-0.763-0.427-1.024l-0-0c-0.261-0.264-0.623-0.428-1.024-0.428s-0.763 0.164-1.024 0.427l-0 0-4.976 4.992-4.976-5.008c-0.261-0.264-0.623-0.428-1.024-0.428s-0.763 0.164-1.024 0.427l-0 0zM8 9.44h16c1.44 0 2.56 1.12 2.56 2.56v10c0 1.44-1.12 2.56-2.56 2.56h-16c-1.44 0-2.56-1.12-2.56-2.56v-10c0-1.44 1.12-2.56 2.56-2.56zM12 28.56c-0.795 0-1.44 0.645-1.44 1.44v0c0 0.795 0.645 1.44 1.44 1.44v0h8c0.795 0 1.44-0.645 1.44-1.44v0c0-0.795-0.645-1.44-1.44-1.44v0z">
			</path>
		</symbol>
		<symbol id="water" viewBox="0 0 32 32">
			<path
				d="M16 2.304c-0.56 0-1.12 0.224-1.488 0.688-1.008 1.184-3.152 3.792-5.072 6.912s-3.648 6.704-3.648 10.096c0 3.008 0.96 5.6 2.784 7.424 1.834 1.729 4.313 2.791 7.039 2.791 0.135 0 0.27-0.003 0.404-0.008l-0.019 0.001c3.008 0 5.6-0.96 7.424-2.784 1.729-1.834 2.791-4.313 2.791-7.039 0-0.135-0.003-0.27-0.008-0.404l0.001 0.019c0-3.392-1.744-6.992-3.648-10.096-1.64-2.61-3.312-4.866-5.136-6.988l0.064 0.076c-0.357-0.422-0.888-0.688-1.48-0.688-0.003 0-0.006 0-0.008 0h0zM16 5.008c1.024 1.216 2.816 3.408 4.512 6.144 1.808 2.944 3.296 6.32 3.296 8.848 0 2.512-0.768 4.416-2.080 5.728-1.388 1.296-3.257 2.091-5.312 2.091-0.146 0-0.292-0.004-0.436-0.012l0.020 0.001c-0.124 0.007-0.27 0.011-0.416 0.011-2.055 0-3.924-0.795-5.316-2.095l0.005 0.004c-1.296-1.388-2.091-3.257-2.091-5.312 0-0.146 0.004-0.292 0.012-0.436l-0.001 0.020c0-2.528 1.488-5.888 3.296-8.848 1.464-2.32 2.951-4.326 4.57-6.214l-0.058 0.070z">
			</path>
			<path
				d="M21.504 19.296c-0.663 0-1.2 0.537-1.2 1.2v0c0 1.84-1.456 3.296-3.296 3.296-0.663 0-1.2 0.537-1.2 1.2v0c0 0.663 0.537 1.2 1.2 1.2v0c3.136 0 5.696-2.56 5.696-5.696 0-0.663-0.537-1.2-1.2-1.2v0z">
			</path>
		</symbol>
	</defs>
</svg>
